<?xml version="1.0" encoding="UTF-8"?>
<svg id="Layer_1" data-name="Layer 1" xmlns="http://www.w3.org/2000/svg" viewBox="0 0 2160 628">
  <defs>
    <style>
      .cls-1 {
        fill: #fff;
      }
    </style>
  </defs>
  <g>
    <path class="cls-1" d="M1292.7,168.02h77.4v61.11c25.8-37.01,70.52-69.71,134.17-69.71,95.46,0,149.65,66.27,149.65,161.8v296.92h-77.4v-276.27c0-62.83-26.66-110.16-93.75-110.16-55.9,0-112.67,43.03-112.67,117.91v268.52h-77.4V168.02Z"/>
    <path class="cls-1" d="M1746.8,393.51c0-128.24,71.38-234.1,196.09-234.1,62.78,0,112.67,30.12,139.33,74.02V.19h77.4v617.95h-77.4v-65.41c-26.66,44.75-76.54,74.88-139.33,74.88-124.7,0-196.09-106.72-196.09-234.1ZM1956.65,227.4c-84.28,0-131.59,68.85-131.59,166.11s47.3,166.11,131.59,166.11c63.64,0,127.29-46.47,127.29-149.75v-31.84c0-105-63.64-150.61-127.29-150.61Z"/>
  </g>
  <path class="cls-1" d="M1208.88,399.27c0-149.15-82.86-238.11-210.2-238.11s-211.07,84.6-211.07,233.74,82.86,230.26,211.07,230.26c101.17,0,177.05-58.44,197.99-139.55h-78.5c-17.44,37.5-53.21,70.65-119.49,70.65-85.48,0-129.09-54.08-137.8-131.7h348.01v-25.29h-.01ZM861.74,357.41c10.46-75.01,55.82-128.21,136.94-128.21s123.85,52.33,134.32,128.21h-271.26,0Z"/>
  <polygon class="cls-1" points="660.99 .09 626.06 .09 561.4 .09 561.4 69.93 626.06 69.93 626.06 616.63 695.91 616.63 695.91 .09 660.99 .09"/>
  <g>
    <g>
      <polygon class="cls-1" points="456.38 551.18 456.38 617.66 -.38 617.66 .48 568.45 164.51 345.25 255.15 345.25 104.09 551.18 456.38 551.18"/>
      <polygon class="cls-1" points="470.19 .3 470.19 52.1 308.37 272.7 217.83 272.7 369.17 66.78 10.84 66.78 10.84 .3 470.19 .3"/>
    </g>
    <polygon class="cls-1" points="217.83 272.7 164.51 345.26 73.89 345.26 127.22 272.7 217.83 272.7"/>
    <polygon class="cls-1" points="399.09 272.7 345.77 345.26 255.15 345.26 308.37 272.7 399.09 272.7"/>
  </g>
</svg>