<?xml version="1.0" encoding="UTF-8"?>
<svg id="Layer_1" data-name="Layer 1" xmlns="http://www.w3.org/2000/svg" viewBox="0 0 1603 594">
  <polygon points="638.98 .22 605.82 .22 544.43 .22 544.43 66.53 605.82 66.53 605.82 585.55 672.13 585.55 672.13 .22 638.98 .22"/>
  <path d="M1144.47,381.71c0-139.99-77.77-223.49-197.29-223.49s-198.11,79.41-198.11,219.39,77.77,216.12,198.11,216.12c94.96,0,166.18-54.85,185.83-130.98h-73.68c-16.37,35.2-49.94,66.31-112.15,66.31-80.23,0-121.16-50.76-129.34-123.61h326.64v-23.74h0ZM818.65,342.42c9.82-70.4,52.39-120.34,128.53-120.34s116.25,49.12,126.07,120.34h-254.6,0Z"/>
  <path d="M1405.62,158.22c-120.34,0-198.11,79.41-198.11,219.39s77.77,216.12,198.11,216.12,197.29-73.68,197.29-216.12-77.77-219.39-197.29-219.39ZM1405.62,530.7c-85.96,0-132.62-67.13-132.62-153.9s46.66-156.36,132.62-156.36,131.8,67.95,131.8,156.36-45.02,153.9-131.8,153.9Z"/>
  <g>
    <polygon points="344.69 .22 280.17 .22 209.61 .22 92.36 342.41 163.77 342.41 258.73 63.26 293.11 63.26 388.07 342.41 257.17 342.41 163.77 342.41 141.66 405.45 278.46 405.45 409.36 405.45 470.76 585.55 544.43 585.55 344.69 .22"/>
    <polygon points="9.05 585.55 80.27 585.55 141.66 405.45 70.76 405.45 9.05 585.55"/>
    <polygon points="21.59 342.41 0 405.45 70.76 405.45 92.36 342.41 21.59 342.41"/>
  </g>
</svg>